<svg xmlns="http://www.w3.org/2000/svg" width="62.153" height="62.113" viewBox="0 0 62.153 62.113">
  <path id="Path_17346" data-name="Path 17346" d="M292.686,430.032a31.953,31.953,0,0,1,4.223-.111c16.4.018,32.814-.031,49.219.027a4.535,4.535,0,0,1,4.857,4.369c.066,12.43.009,24.86.027,37.29-.093,5.61.213,11.229-.208,16.826-8.614-9.031-17.668-17.654-26.411-26.57a62.844,62.844,0,0,0,4.414-4.613,22.983,22.983,0,0,0,3.173-.013c.567-.864,1.573-2.038.691-3.049-2.552-2.965-5.557-5.5-8.189-8.384a20.925,20.925,0,0,1-2.672-2.681c-1.019-1.285-3.412-1.839-4.325-.164-.767.829-.018,1.967.009,2.925-1.91,1.542-3.505,3.417-5.273,5.114-2.592,2.668-5.357,5.171-7.817,7.963-1.267.044-2.619-.191-3.753.514-.053,1.117-.062,2.238,0,3.359,3.962,3.846,7.839,7.781,11.747,11.681.935-.04,2.109.3,2.761-.6,1.161-.807.4-2.26.612-3.385,1.307-1.533,2.934-2.761,4.179-4.352.133-.027.4-.075.536-.1a17.592,17.592,0,0,0,2.092,2.052c1.963,2.162,4.179,4.068,6.173,6.2,5.663,5.614,11.393,11.171,16.9,16.932.412.12.829.244,1.245.372a15.242,15.242,0,0,1-2.57.381q-25.033,0-50.074,0a5.087,5.087,0,0,1-4.219-1.555c-1.21-1.25-1.086-3.093-1.121-4.693.124-15.208-.044-30.412.066-45.616a54.273,54.273,0,0,1,.018-6.3A4.3,4.3,0,0,1,292.686,430.032Z" transform="translate(-288.879 -429.906)" fill="#6c98a2"/>
</svg>
